<?xml version="1.0" encoding="UTF-8" standalone="no"?>
<!-- Created with Inkscape (http://www.inkscape.org/) -->

<svg
   xmlns:dc="http://purl.org/dc/elements/1.1/"
   xmlns:cc="http://creativecommons.org/ns#"
   xmlns:rdf="http://www.w3.org/1999/02/22-rdf-syntax-ns#"
   xmlns:svg="http://www.w3.org/2000/svg"
   xmlns="http://www.w3.org/2000/svg"
   xmlns:sodipodi="http://sodipodi.sourceforge.net/DTD/sodipodi-0.dtd"
   xmlns:inkscape="http://www.inkscape.org/namespaces/inkscape"
   width="744.09448819"
   height="1052.3622047"
   id="svg2"
   version="1.1"
   inkscape:version="0.47 r22583"
   sodipodi:docname="New document 1">
  <defs
     id="defs4">
    <inkscape:perspective
       sodipodi:type="inkscape:persp3d"
       inkscape:vp_x="0 : 526.18109 : 1"
       inkscape:vp_y="0 : 1000 : 0"
       inkscape:vp_z="744.09448 : 526.18109 : 1"
       inkscape:persp3d-origin="372.04724 : 350.78739 : 1"
       id="perspective10" />
  </defs>
  <sodipodi:namedview
     id="base"
     pagecolor="#ffffff"
     bordercolor="#666666"
     borderopacity="1.0"
     inkscape:pageopacity="0.0"
     inkscape:pageshadow="2"
     inkscape:zoom="0.49497475"
     inkscape:cx="222.14286"
     inkscape:cy="494.39806"
     inkscape:document-units="px"
     inkscape:current-layer="layer1"
     showgrid="false"
     inkscape:window-width="1366"
     inkscape:window-height="716"
     inkscape:window-x="0"
     inkscape:window-y="24"
     inkscape:window-maximized="1" />
  <metadata
     id="metadata7">
    <rdf:RDF>
      <cc:Work
         rdf:about="">
        <dc:format>image/svg+xml</dc:format>
        <dc:type
           rdf:resource="http://purl.org/dc/dcmitype/StillImage" />
        <dc:title></dc:title>
      </cc:Work>
    </rdf:RDF>
  </metadata>
  <g
     inkscape:label="Layer 1"
     inkscape:groupmode="layer"
     id="layer1">
    <g
       id="g3667"
       transform="translate(-39.285714,258.57143)">
      <rect
         y="400.2193"
         x="344.28571"
         height="132.85715"
         width="136.42857"
         id="rect2816"
         style="opacity:0.93721972;fill:none;stroke:#000000;stroke-width:3;stroke-miterlimit:4;stroke-opacity:1;stroke-dasharray:none" />
      <text
         id="text3590"
         y="455.93359"
         x="414.28574"
         style="font-size:22px;font-style:normal;font-variant:normal;font-weight:bold;font-stretch:normal;text-align:center;text-anchor:middle;fill:#000000;fill-opacity:1;stroke:none;font-family:Courier 10 Pitch;-inkscape-font-specification:Bitstream Charter Bold"
         xml:space="preserve"><tspan
           y="455.93359"
           x="414.28574"
           id="tspan3592"
           sodipodi:role="line">monitored</tspan><tspan
           id="tspan3594"
           y="483.43359"
           x="414.28574"
           sodipodi:role="line">host</tspan></text>
    </g>
    <g
       id="g3648"
       transform="translate(35,215)">
      <rect
         ry="31.794786"
         y="433.78168"
         x="27.133789"
         height="63.589573"
         width="165.01814"
         id="rect3596"
         style="opacity:0.93721972;fill:none;stroke:#000000;stroke-width:1;stroke-linecap:butt;stroke-linejoin:miter;stroke-miterlimit:4;stroke-opacity:1;stroke-dasharray:none;stroke-dashoffset:0" />
      <text
         id="text3598"
         y="454.50504"
         x="107.85715"
         style="font-size:22px;font-style:normal;font-variant:normal;font-weight:normal;font-stretch:normal;text-align:center;text-anchor:middle;fill:#000000;fill-opacity:1;stroke:none;font-family:Courier 10 Pitch;-inkscape-font-specification:Bitstream Charter"
         xml:space="preserve"><tspan
           y="454.50504"
           x="107.85715"
           id="tspan3600"
           sodipodi:role="line">number</tspan><tspan
           dy="-10.714287"
           id="tspan3602"
           y="482.00504"
           x="107.85715"
           sodipodi:role="line">of</tspan><tspan
           dy="-10.714287 0 0 -1.6276132e-08"
           id="tspan3604"
           y="509.50504"
           x="107.85715"
           sodipodi:role="line">processes</tspan></text>
    </g>
    <flowRoot
       xml:space="preserve"
       id="flowRoot3606"
       style="fill:black;stroke:none;stroke-opacity:1;stroke-width:1px;stroke-linejoin:miter;stroke-linecap:butt;fill-opacity:1;font-family:Courier 10 Pitch;font-style:normal;font-weight:normal;font-size:40px;-inkscape-font-specification:Courier 10 Pitch;font-stretch:normal;font-variant:normal"><flowRegion
         id="flowRegion3608"><rect
           id="rect3610"
           width="188.57143"
           height="107.14286"
           x="34.285713"
           y="451.64789" /></flowRegion><flowPara
         id="flowPara3612"></flowPara></flowRoot>    <g
       id="g3655"
       transform="translate(45,236.42857)">
      <rect
         style="opacity:0.93721972;fill:none;stroke:#000000;stroke-width:1;stroke-linecap:butt;stroke-linejoin:miter;stroke-miterlimit:4;stroke-opacity:1;stroke-dasharray:none;stroke-dashoffset:0"
         id="rect3614"
         width="165.01814"
         height="63.589573"
         x="27.133789"
         y="513.78168"
         ry="31.794786" />
      <text
         xml:space="preserve"
         style="font-size:22px;font-style:normal;font-variant:normal;font-weight:normal;font-stretch:normal;text-align:center;text-anchor:middle;fill:#000000;fill-opacity:1;stroke:none;font-family:Courier 10 Pitch;-inkscape-font-specification:Bitstream Charter"
         x="107.85715"
         y="534.505"
         id="text3616"><tspan
           sodipodi:role="line"
           x="107.85715"
           y="534.505"
           id="tspan3622">memory</tspan><tspan
           id="tspan3639"
           sodipodi:role="line"
           x="107.85715"
           y="562.005">usage</tspan></text>
    </g>
    <g
       id="g3661"
       transform="translate(180.71429,250.71429)">
      <rect
         ry="31.794786"
         y="593.78168"
         x="27.133789"
         height="63.589573"
         width="165.01814"
         id="rect3624"
         style="opacity:0.93721972;fill:none;stroke:#000000;stroke-width:1;stroke-linecap:butt;stroke-linejoin:miter;stroke-miterlimit:4;stroke-opacity:1;stroke-dasharray:none;stroke-dashoffset:0" />
      <text
         id="text3626"
         y="614.505"
         x="107.85715"
         style="font-size:22px;font-style:normal;font-variant:normal;font-weight:normal;font-stretch:normal;text-align:center;text-anchor:middle;fill:#000000;fill-opacity:1;stroke:none;font-family:Courier 10 Pitch;-inkscape-font-specification:Bitstream Charter"
         xml:space="preserve"><tspan
           id="tspan3632"
           y="614.505"
           x="107.85715"
           sodipodi:role="line">CPU</tspan><tspan
           id="tspan3646"
           y="642.005"
           x="107.85715"
           sodipodi:role="line">usage</tspan></text>
    </g>
    <path
       style="fill:none;stroke:#000000;stroke-width:1;stroke-linecap:butt;stroke-linejoin:miter;stroke-miterlimit:4;stroke-opacity:1;stroke-dasharray:none"
       d="m 297.67435,805.40523 c 16.76411,-0.17959 31.98866,-4.84891 31.98866,-4.84891 0,0 -3.25018,19.75485 -1.71062,22.2691 1.53957,2.51426 -6.67143,-7.004 -6.67143,-7.004 l -21.21174,23.34665 -18.30367,-10.95496 25.48829,-18.8569 -9.57949,-3.95098 z"
       id="path3695"
       sodipodi:nodetypes="ccsccccc" />
    <path
       sodipodi:nodetypes="ccsccccc"
       id="path3697"
       d="m 268.36429,743.63022 c 15.14452,7.19105 30.87457,9.672 30.87457,9.672 0,0 -11.58504,16.32802 -11.30416,19.26279 0.28089,2.93477 -2.92372,-9.22041 -2.92372,-9.22041 l -29.30223,11.67833 -11.64469,-17.8728 31.1764,-5.7678 -6.87617,-7.75211 z"
       style="fill:none;stroke:#000000;stroke-width:1;stroke-linecap:butt;stroke-linejoin:miter;stroke-miterlimit:4;stroke-opacity:1;stroke-dasharray:none" />
    <path
       style="fill:none;stroke:#000000;stroke-width:1;stroke-linecap:butt;stroke-linejoin:miter;stroke-miterlimit:4;stroke-opacity:1;stroke-dasharray:none"
       d="m 272.20001,671.08973 c 8.64098,14.36667 20.37463,25.13287 20.37463,25.13287 0,0 -18.68208,7.19703 -20.07107,9.79751 -1.38898,2.60048 2.66321,-9.299 2.66321,-9.299 l -30.87196,-6.47504 0.18226,-21.33078 29.16476,12.43593 -1.44183,-10.26149 z"
       id="path3699"
       sodipodi:nodetypes="ccsccccc" />
    <g
       transform="translate(180.71429,258.57143)"
       id="g3701">
      <rect
         style="opacity:0.93721972;fill:none;stroke:#000000;stroke-width:3;stroke-miterlimit:4;stroke-opacity:1;stroke-dasharray:none"
         id="rect3703"
         width="136.42857"
         height="132.85715"
         x="344.28571"
         y="400.2193" />
      <text
         xml:space="preserve"
         style="font-size:22px;font-style:normal;font-variant:normal;font-weight:bold;font-stretch:normal;text-align:center;text-anchor:middle;fill:#000000;fill-opacity:1;stroke:none;font-family:Courier 10 Pitch;-inkscape-font-specification:Bitstream Charter Bold"
         x="414.28574"
         y="455.93359"
         id="text3705"><tspan
           sodipodi:role="line"
           id="tspan3707"
           x="414.28574"
           y="455.93359">monitored</tspan><tspan
           sodipodi:role="line"
           x="414.28574"
           y="483.43359"
           id="tspan3709">host</tspan></text>
    </g>
    <g
       transform="translate(45,-268.57143)"
       id="g3711">
      <rect
         style="opacity:1;fill:#000000;fill-opacity:1;stroke:none"
         id="rect3713"
         width="218.92461"
         height="103.92461"
         x="320.18054"
         y="671.82843" />
      <text
         xml:space="preserve"
         style="font-size:22px;font-style:normal;font-variant:normal;font-weight:bold;font-stretch:normal;text-align:center;text-anchor:middle;fill:#ffffff;fill-opacity:1;stroke:none;font-family:Courier 10 Pitch;-inkscape-font-specification:Bitstream Charter Bold"
         x="429.42859"
         y="707.36218"
         id="text3715"><tspan
           sodipodi:role="line"
           x="429.42859"
           y="707.36218"
           id="tspan3719">monitoring</tspan><tspan
           sodipodi:role="line"
           x="429.42859"
           y="734.86218"
           id="tspan3727">server</tspan></text>
      <path
         style="fill:none;stroke:#000000;stroke-width:1px;stroke-linecap:butt;stroke-linejoin:miter;stroke-opacity:1"
         d="m 58.571429,713.79075 c -9.796913,5.03874 -23.571222,6.85682 -30,17.14286 -28.29341226,45.26946 3.453424,97.12051 30,134.28572 10.49054,14.68675 27.860608,24.52958 37.142857,40 6.812364,11.35393 7.142854,28.47838 7.142854,41.42857"
         id="path3741"
         transform="translate(-45,268.57143)" />
      <path
         style="fill:none;stroke:#000000;stroke-width:1px;stroke-linecap:butt;stroke-linejoin:miter;stroke-opacity:1"
         d="m 162.85714,842.36218 c -4.33913,42.69716 -27.77667,79.83906 -45.71428,115.71429"
         id="path3743"
         transform="translate(-45,268.57143)" />
      <path
         style="fill:none;stroke:#000000;stroke-width:1px;stroke-linecap:butt;stroke-linejoin:miter;stroke-opacity:1"
         d="m 131.42857,955.21933 c 35.54644,-18.00271 113.78027,-10.41769 130,-42.85715"
         id="path3745"
         transform="translate(-45,268.57143)" />
      <text
         xml:space="preserve"
         style="font-size:40px;font-style:normal;font-variant:normal;font-weight:normal;font-stretch:normal;fill:#000000;fill-opacity:1;stroke:none;font-family:Courier 10 Pitch;-inkscape-font-specification:Courier 10 Pitch"
         x="41.42857"
         y="1002.3622"
         id="text3747"
         transform="translate(-45,268.57143)"><tspan
           sodipodi:role="line"
           id="tspan3749"
           x="41.42857"
           y="1002.3622">plugins</tspan></text>
      <g
         id="g3782"
         transform="matrix(0.5802232,0,0,0.5802232,51.255155,286.19899)"
         style="stroke-width:1.72347474;stroke-miterlimit:4;stroke-dasharray:none">
        <path
           sodipodi:nodetypes="cccccc"
           id="rect3759"
           d="m 124.28571,73.790756 138.57143,0 0,162.857144 c -6.96692,9.88242 -23.27409,14.59691 -67.85715,15.71429 -46.73901,-1.70881 -58.74505,-4.22397 -70.71428,-15.71429 l 0,-162.857144 z"
           style="fill:#ffffff;fill-opacity:1;fill-rule:nonzero;stroke:#000000;stroke-width:1.72347474;stroke-linecap:butt;stroke-linejoin:miter;stroke-miterlimit:4;stroke-opacity:1;stroke-dasharray:none;stroke-dashoffset:0"
           transform="translate(-45,268.57143)" />
        <path
           transform="matrix(0.66091778,0,0,0.78266937,-28.470629,92.413618)"
           d="m 372.85715,320.93362 c 0,13.41263 -47.0101,24.28572 -105,24.28572 -57.9899,0 -105,-10.87309 -105,-24.28572 0,-13.41263 47.0101,-24.28571 105,-24.28571 57.9899,0 105,10.87308 105,24.28571 z"
           sodipodi:ry="24.285715"
           sodipodi:rx="105"
           sodipodi:cy="320.93362"
           sodipodi:cx="267.85715"
           id="path3751"
           style="fill:#ffffff;fill-opacity:1;fill-rule:nonzero;stroke:#000000;stroke-width:2.39630461;stroke-miterlimit:4;stroke-opacity:1;stroke-dasharray:none"
           sodipodi:type="arc" />
        <path
           sodipodi:nodetypes="css"
           id="path3768"
           d="m 372.85715,320.93362 c 0,13.41263 -47.0101,24.28572 -105,24.28572 -57.9899,0 -105,-10.87309 -105,-24.28572"
           style="fill:#ffffff;fill-opacity:1;fill-rule:nonzero;stroke:#000000;stroke-width:2.39630461;stroke-miterlimit:4;stroke-opacity:1;stroke-dasharray:none"
           transform="matrix(0.66091778,0,0,0.78266937,-28.470629,252.41362)" />
        <path
           style="fill:#ffffff;fill-opacity:1;fill-rule:nonzero;stroke:#000000;stroke-width:1.72347474;stroke-miterlimit:4;stroke-opacity:1;stroke-dasharray:none"
           d="m 217.95729,463.59853 c 0,10.49766 -31.06981,19.00769 -69.39637,19.00769 -38.32655,0 -69.396363,-8.51003 -69.396363,-19.00769"
           id="path3771"
           sodipodi:nodetypes="css" />
        <path
           style="fill:#ffffff;fill-opacity:1;fill-rule:nonzero;stroke:#000000;stroke-width:1.72347474;stroke-miterlimit:4;stroke-opacity:1;stroke-dasharray:none"
           d="m 217.95729,463.59853 c 0,10.49766 -31.06981,19.00769 -69.39637,19.00769 -38.32655,0 -69.396363,-8.51003 -69.396363,-19.00769"
           id="path3776"
           sodipodi:nodetypes="css" />
        <path
           sodipodi:nodetypes="css"
           id="path3778"
           d="m 217.95729,423.59853 c 0,10.49766 -31.06981,19.00769 -69.39637,19.00769 -38.32655,0 -69.396363,-8.51003 -69.396363,-19.00769"
           style="fill:#ffffff;fill-opacity:1;fill-rule:nonzero;stroke:#000000;stroke-width:1.72347474;stroke-miterlimit:4;stroke-opacity:1;stroke-dasharray:none" />
        <path
           style="fill:#ffffff;fill-opacity:1;fill-rule:nonzero;stroke:#000000;stroke-width:1.72347474;stroke-miterlimit:4;stroke-opacity:1;stroke-dasharray:none"
           d="m 217.95729,383.59853 c 0,10.49766 -31.06981,19.00769 -69.39637,19.00769 -38.32655,0 -69.396363,-8.51003 -69.396363,-19.00769"
           id="path3780"
           sodipodi:nodetypes="css" />
      </g>
      <text
         xml:space="preserve"
         style="font-size:22px;font-style:normal;font-variant:normal;font-weight:normal;font-stretch:normal;text-align:center;text-anchor:middle;fill:#000000;fill-opacity:1;stroke:none;font-family:Courier 10 Pitch;-inkscape-font-specification:Bitstream Charter"
         x="143.89851"
         y="609.78613"
         id="text3791"><tspan
           sodipodi:role="line"
           id="tspan3793"
           x="143.89851"
           y="609.78613">round-robin</tspan><tspan
           sodipodi:role="line"
           x="143.89851"
           y="637.28613"
           id="tspan3795">database</tspan></text>
    </g>
    <path
       sodipodi:nodetypes="ccsccccc"
       id="path3721"
       d="m 369.6845,573.4689 c 20.78803,-27.08694 39.77876,-62.32262 39.77876,-62.32262 0,0 -4.51964,51.79771 -2.67332,55.28359 1.84631,3.48584 -8.09723,-5.92107 -8.09723,-5.92107 l -26.87688,88.84322 -22.42043,3.25416 32.0674,-85.04764 -11.7783,5.91036 z"
       style="fill:none;stroke:#000000;stroke-width:1.69906318;stroke-linecap:butt;stroke-linejoin:miter;stroke-miterlimit:4;stroke-opacity:1;stroke-dasharray:none" />
    <path
       style="fill:none;stroke:#000000;stroke-width:1.78783786;stroke-linecap:butt;stroke-linejoin:miter;stroke-miterlimit:4;stroke-opacity:1;stroke-dasharray:none"
       d="m 584.46827,574.7808 c -23.84849,-22.79253 -45.44102,-53.55394 -45.44102,-53.55394 0,0 4.33584,48.45203 2.10872,52.00977 -2.22711,3.55772 9.594,-6.72838 9.594,-6.72838 l 29.8382,80.46319 26.2014,-0.0136 -35.98819,-76.15008 13.68689,3.97299 z"
       id="path3723"
       sodipodi:nodetypes="ccsccccc" />
    <path
       sodipodi:nodetypes="ccsccccc"
       id="path3797"
       d="m 296.14817,394.35281 c -2.32265,-24.97763 -11.15197,-47.10906 -11.15197,-47.10906 0,0 29.85799,2.42544 33.41871,-0.17865 3.56069,-2.60409 -9.62705,10.80736 -9.62705,10.80736 l 37.41594,28.77052 -14.09315,28.63833 -31.24474,-35.69831 -4.71774,14.76981 z"
       style="fill:none;stroke:#000000;stroke-width:1.49628913;stroke-linecap:butt;stroke-linejoin:miter;stroke-miterlimit:4;stroke-opacity:1;stroke-dasharray:none" />
    <path
       style="fill:none;stroke:#000000;stroke-width:1.49628913;stroke-linecap:butt;stroke-linejoin:miter;stroke-miterlimit:4;stroke-opacity:1;stroke-dasharray:none"
       d="m 280.66075,163.55176 c 24.19627,6.61943 48.01924,6.14675 48.01924,6.14675 0,0 -12.7817,27.09263 -11.59787,31.34216 1.18383,4.24951 -6.72628,-12.81547 -6.72628,-12.81547 l -40.10096,24.89192 -21.84343,-23.27306 44.41267,-16.67687 -12.16337,-9.61543 z"
       id="path3799"
       sodipodi:nodetypes="ccsccccc" />
    <path
       sodipodi:type="arc"
       style="fill:#ffffff;fill-opacity:1;fill-rule:nonzero;stroke:#000000;stroke-width:1;stroke-linecap:butt;stroke-linejoin:miter;stroke-miterlimit:4;stroke-opacity:1;stroke-dasharray:none;stroke-dashoffset:0"
       id="path3801"
       sodipodi:cx="470.71429"
       sodipodi:cy="183.79076"
       sodipodi:rx="100.71429"
       sodipodi:ry="92.85714"
       d="m 571.42858,183.79076 a 100.71429,92.85714 0 1 1 -201.42857,0 100.71429,92.85714 0 1 1 201.42857,0 z" />
    <text
       xml:space="preserve"
       style="font-size:40px;font-style:normal;font-variant:normal;font-weight:bold;font-stretch:normal;text-align:center;text-anchor:middle;fill:#000000;fill-opacity:1;stroke:none;font-family:Courier 10 Pitch;-inkscape-font-specification:Bitstream Charter Bold"
       x="468.57144"
       y="168.07646"
       id="text3803"><tspan
         sodipodi:role="line"
         id="tspan3805"
         x="468.57144"
         y="168.07646">HTTP</tspan><tspan
         sodipodi:role="line"
         x="468.57144"
         y="218.07648"
         id="tspan3807">server</tspan></text>
  </g>
</svg>
