<?xml version="1.0" encoding="UTF-8" standalone="no"?>
<!-- Created with Inkscape (http://www.inkscape.org/) -->

<svg
   xmlns:dc="http://purl.org/dc/elements/1.1/"
   xmlns:cc="http://creativecommons.org/ns#"
   xmlns:rdf="http://www.w3.org/1999/02/22-rdf-syntax-ns#"
   xmlns:svg="http://www.w3.org/2000/svg"
   xmlns="http://www.w3.org/2000/svg"
   xmlns:xlink="http://www.w3.org/1999/xlink"
   xmlns:sodipodi="http://sodipodi.sourceforge.net/DTD/sodipodi-0.dtd"
   xmlns:inkscape="http://www.inkscape.org/namespaces/inkscape"
   width="265"
   height="160"
   id="svg2"
   version="1.1"
   inkscape:version="0.47 r22583"
   sodipodi:docname="proc.svg">
  <defs
     id="defs4">
    <linearGradient
       id="linearGradient3642">
      <stop
         style="stop-color:#000000;stop-opacity:1;"
         offset="0"
         id="stop3644" />
      <stop
         style="stop-color:#000000;stop-opacity:0.54400003;"
         offset="1"
         id="stop3646" />
    </linearGradient>
    <inkscape:perspective
       sodipodi:type="inkscape:persp3d"
       inkscape:vp_x="0 : 526.18109 : 1"
       inkscape:vp_y="0 : 1000 : 0"
       inkscape:vp_z="744.09448 : 526.18109 : 1"
       inkscape:persp3d-origin="372.04724 : 350.78739 : 1"
       id="perspective10" />
    <linearGradient
       inkscape:collect="always"
       xlink:href="#linearGradient3642"
       id="linearGradient3648"
       x1="252.85715"
       y1="628.07648"
       x2="252.85715"
       y2="466.64789"
       gradientUnits="userSpaceOnUse"
       spreadMethod="pad"
       gradientTransform="matrix(1.0136613,0,0,0.99115043,0.47423265,4.1296356)" />
    <filter
       inkscape:collect="always"
       id="filter3991">
      <feGaussianBlur
         inkscape:collect="always"
         stdDeviation="0.28539501"
         id="feGaussianBlur3993" />
    </filter>
  </defs>
  <sodipodi:namedview
     id="base"
     pagecolor="#ffffff"
     bordercolor="#666666"
     borderopacity="1.0"
     inkscape:pageopacity="0.0"
     inkscape:pageshadow="2"
     inkscape:zoom="1.4"
     inkscape:cx="378.2658"
     inkscape:cy="20.68477"
     inkscape:document-units="px"
     inkscape:current-layer="layer1"
     showgrid="false"
     inkscape:window-width="1366"
     inkscape:window-height="716"
     inkscape:window-x="0"
     inkscape:window-y="24"
     inkscape:window-maximized="1"
     showborder="true"
     borderlayer="false" />
  <metadata
     id="metadata7">
    <rdf:RDF>
      <cc:Work
         rdf:about="">
        <dc:format>image/svg+xml</dc:format>
        <dc:type
           rdf:resource="http://purl.org/dc/dcmitype/StillImage" />
        <dc:title></dc:title>
      </cc:Work>
    </rdf:RDF>
  </metadata>
  <g
     inkscape:label="Layer 1"
     inkscape:groupmode="layer"
     id="layer1"
     transform="translate(-124.28571,-466.64789)">
    <rect
       style="fill:url(#linearGradient3648);fill-opacity:1;fill-rule:nonzero;stroke:none"
       id="rect3640"
       width="265"
       height="160"
       x="124.28571"
       y="466.64789"
       ry="0" />
    <g
       id="g3942"
       style="stroke:#ffffff;stroke-opacity:1;stroke-width:2;stroke-miterlimit:4;stroke-dasharray:none;opacity:1;filter:url(#filter3991)">
      <g
         transform="matrix(0.99631208,-0.02786371,0.14623892,0.99961173,22.331657,13.256518)"
         id="g3928"
         style="stroke:#ffffff;stroke-opacity:1;stroke-width:2;stroke-miterlimit:4;stroke-dasharray:none" />
      <path
         id="path3940"
         style="fill:none;stroke:#ffffff;stroke-width:2;stroke-linecap:butt;stroke-linejoin:miter;stroke-opacity:1;stroke-miterlimit:4;stroke-dasharray:none"
         d="m 215.13132,609.61975 5.1578,-10.80697 52.22281,-1.87947 9.02616,12.68644 -1.28945,-2.34934 m -35.12099,-33.72882 c 0.74561,1.52687 -0.10067,3.1409 -1.89021,3.60505 -1.78955,0.46414 -3.8447,-0.39736 -4.5903,-1.92423 -0.74561,-1.52687 0.10068,-3.1409 1.89022,-3.60505 1.78955,-0.46414 3.84469,0.39736 4.59029,1.92423 z m 22.73513,25.80645 1.92705,-0.0393 1.41425,7.04528 -1.92705,0.0393 -1.41425,-7.04529 z m -5.78115,0.11784 1.92704,-0.0393 1.41426,7.04528 -1.92705,0.0393 -1.41425,-7.04528 z m -6.42359,0.13092 1.92705,-0.0393 1.41426,7.04529 -1.92705,0.0393 -1.41426,-7.04529 z m -5.78098,0.11783 1.92704,-0.0393 1.41426,7.04529 -1.92705,0.0393 -1.41425,-7.04529 z m -5.78122,0.11783 1.92705,-0.0393 1.41427,7.04529 -1.92705,0.0393 -1.41427,-7.04529 z m -5.7812,0.11783 1.92705,-0.0393 1.41426,7.04529 -1.92704,0.0393 -1.41427,-7.04529 z m -6.42355,0.13092 1.92704,-0.0393 1.41427,7.04528 -1.92705,0.0393 -1.41426,-7.04529 z m -5.78099,0.11783 1.92704,-0.0393 1.41426,7.04529 -1.92704,0.0393 -1.41426,-7.04528 z m 26.06422,-28.7395 c 2.07039,4.23978 -0.27955,8.72161 -5.24874,10.01043 -4.96917,1.28884 -10.67587,-1.10338 -12.74626,-5.34317 -2.07038,-4.23978 0.27955,-8.72161 5.24873,-10.01043 4.96919,-1.28884 10.67589,1.10338 12.74627,5.34317 z m 3.45443,-1.24923 c 2.86526,5.86753 -0.38688,12.07003 -7.26385,13.85368 -6.87696,1.78363 -14.77458,-1.52702 -17.63984,-7.39455 -2.86525,-5.86753 0.38687,-12.07003 7.26384,-13.85367 6.87697,-1.78364 14.7746,1.52701 17.63985,7.39454 z M 215.77604,537.26 l 56.92588,-5.16855 m -58.86005,-10.80698 57.5706,-2.8192 1.28945,-0.46988 m -60.79423,-5.63842 3.22363,37.58948 62.08368,-4.22881 -3.86835,-39.93883 -61.43896,1.87948 m 71.56457,-8.45764 23.21014,-13.62619 M 205.46043,502.9596 c 36.10465,-20.67421 26.43377,-14.56592 26.43377,-14.56592 l 76.07764,-3.28908 -2.57889,116.99726 -13.53925,7.04803 M 204.17098,503.89934 c 5.15781,93.9737 5.80253,105.72041 5.80253,105.72041 l 81.88019,0 c 0,0 -6.44725,-104.3108 -7.73671,-108.53962 -1.28945,-4.22882 -79.30128,3.28908 -79.94601,2.81921 z"
         sodipodi:nodetypes="ccccccsssccccccccccccccccccccccccccccccccccccccccccsssccssscccccccccccccccccccccsc" />
    </g>
  </g>
</svg>
